<?xml version="1.0" encoding="utf-8"?>
<!-- Svg Vector Icons : http://www.onlinewebfonts.com/icon -->
<!DOCTYPE svg PUBLIC "-//W3C//DTD SVG 1.1//EN" "http://www.w3.org/Graphics/SVG/1.1/DTD/svg11.dtd">
<svg version="1.1" xmlns="http://www.w3.org/2000/svg" xmlns:xlink="http://www.w3.org/1999/xlink" x="0px" y="0px" viewBox="0 0 256 256" enable-background="new 0 0 256 256" xml:space="preserve">
<metadata> Svg Vector Icons : http://www.onlinewebfonts.com/icon </metadata>
<g><g><g><path fill="#000000" d="M102.7,36.6C60.1,39.1,26,47.2,14.7,57.4C8.5,63,8.4,67.9,14.4,73.5c12.4,11.3,49.4,19.3,98.7,21.4l8.3,0.4v52.4V200l-9.3,0.6c-16.3,1.1-28.1,3.2-33.5,6.2c-2.3,1.3-2.6,1.5-2.6,3.2s0.3,1.9,2.6,3.2c11.7,6.4,53.1,8.6,81.8,4.5c14.3-2.1,21.3-5.2,19.9-9c-0.5-1.1-4.8-3.2-9.2-4.4c-5.5-1.5-16.2-3-26.9-3.7l-9.4-0.6v-52.5V95.1h2.5c5,0,22.7-1,31.1-1.8c35.6-3.3,63.4-10.8,73.2-19.7c3.6-3.3,4.7-5.5,4.4-8.8c-0.3-3.2-1.9-5.6-5.7-8.5c-11.7-8.9-39.1-15.7-76.2-19C153.3,36.4,114.2,35.9,102.7,36.6z"/></g></g></g>
</svg>